<svg width="72" height="22" viewBox="0 0 72 22" fill="none" xmlns="http://www.w3.org/2000/svg">
<path d="M16.2663 9.91435H19.2449V10.9207C20.0365 10.4716 20.793 10.1561 21.5137 9.97513C22.2351 9.79412 22.9409 9.70361 23.6318 9.70361C24.5376 9.70361 25.3758 9.836 26.1471 10.1008C26.9185 10.3655 27.5858 10.76 28.1498 11.2828C28.7131 11.8062 29.1541 12.4587 29.4729 13.2395C29.7917 14.0209 29.9512 14.9253 29.9512 15.9513V21.7877H26.9826V16.4343C26.9826 15.7838 26.8901 15.2016 26.7057 14.6889C26.5213 14.1756 26.2559 13.7433 25.9107 13.3908C25.5649 13.0389 25.1462 12.7701 24.6531 12.5857C24.16 12.4013 23.6082 12.3087 22.9976 12.3087C22.6754 12.3087 22.3452 12.3425 22.0068 12.4094C21.6677 12.4769 21.3361 12.5722 21.0105 12.6964C20.685 12.8207 20.3716 12.9747 20.0696 13.1591C19.7677 13.3435 19.4928 13.5536 19.2443 13.7879V21.7877H16.2656V9.91367L16.2663 9.91435Z" fill="white"/>
<path d="M43.8054 15.8818C43.8054 15.0098 43.9648 14.1966 44.2836 13.4414C44.6024 12.687 45.0684 12.0325 45.6824 11.4793C46.2963 10.9261 47.0474 10.4918 47.9363 10.1764C48.8251 9.86099 49.8396 9.70361 50.9798 9.70361C51.4762 9.70361 51.976 9.73401 52.4792 9.79412C52.9824 9.85423 53.4667 9.94001 53.9334 10.0508C54.3995 10.1616 54.8371 10.2926 55.2464 10.4432C55.6558 10.5945 56.011 10.76 56.3129 10.9417L54.9344 13.1854C54.284 12.8835 53.668 12.662 53.0878 12.5215C52.5076 12.3803 51.9186 12.3101 51.3215 12.3101C50.6373 12.3101 50.0234 12.3992 49.4803 12.5769C48.9373 12.7545 48.476 13.0031 48.0964 13.3212C47.7174 13.64 47.429 14.0155 47.2311 14.4485C47.0332 14.8814 46.9346 15.3522 46.9346 15.8622C46.9346 16.3721 47.04 16.8436 47.2514 17.2758C47.4628 17.7088 47.7613 18.0809 48.147 18.393C48.5327 18.705 48.9987 18.9496 49.5458 19.1272C50.0922 19.3048 50.7015 19.394 51.3722 19.394C52.1098 19.394 52.8061 19.29 53.4599 19.0819C54.1137 18.8739 54.723 18.5956 55.2863 18.2464L56.6648 20.4909C56.3096 20.7057 55.9239 20.9049 55.5078 21.0893C55.0918 21.2737 54.6473 21.4331 54.1745 21.5675C53.7017 21.7019 53.2053 21.8073 52.6852 21.8843C52.1651 21.9613 51.6268 21.9998 51.0703 21.9998C49.9362 21.9998 48.9204 21.8458 48.0214 21.5371C47.1224 21.2284 46.3612 20.8009 45.7371 20.2545C45.113 19.7081 44.6355 19.0623 44.3032 18.3173C43.9708 17.573 43.8047 16.7612 43.8047 15.8824" fill="white"/>
<path d="M60.9706 17.9452C60.9706 18.1397 61.0213 18.3261 61.1219 18.5038C61.2226 18.6814 61.3833 18.8395 61.6049 18.9766C61.8264 19.1144 62.1094 19.2244 62.4552 19.3089C62.8004 19.3926 63.2185 19.4345 63.7081 19.4345C64.2316 19.4345 64.7375 19.3879 65.2279 19.294C65.7175 19.2001 66.1735 19.0759 66.5963 18.9219C67.0191 18.7679 67.4014 18.5902 67.7432 18.3883C68.0856 18.187 68.3706 17.9796 68.5982 17.7642V17.2407C68.1417 17.1131 67.6905 17.0063 67.2447 16.9185C66.7982 16.8314 66.3727 16.7625 65.9668 16.7125C65.5608 16.6626 65.1786 16.6274 64.8199 16.6072C64.4612 16.5869 64.1472 16.5768 63.879 16.5768C63.3225 16.5768 62.8591 16.6132 62.4903 16.6875C62.1216 16.7612 61.823 16.8605 61.5947 16.9841C61.3664 17.1083 61.2057 17.2542 61.1118 17.4217C61.0179 17.5899 60.9706 17.7642 60.9706 17.9452ZM57.8312 18.0458C57.8312 17.4758 57.9555 16.9557 58.2034 16.4863C58.4513 16.0168 58.8241 15.6129 59.3206 15.2739C59.817 14.9355 60.4357 14.6734 61.1773 14.489C61.9183 14.3046 62.7821 14.2121 63.7683 14.2121C64.4997 14.2121 65.2691 14.2661 66.0775 14.3728C66.886 14.4802 67.7195 14.6444 68.578 14.8659C68.5442 14.4904 68.4301 14.1432 68.2355 13.8244C68.041 13.5056 67.7708 13.2307 67.4257 12.999C67.0799 12.7674 66.6645 12.5884 66.1782 12.4607C65.6919 12.3337 65.1401 12.2696 64.5227 12.2696C64.187 12.2696 63.8182 12.2898 63.4157 12.3297C63.0131 12.3702 62.5971 12.4303 62.1682 12.5107C61.7386 12.5911 61.3144 12.6917 60.895 12.8126C60.4755 12.9335 60.0851 13.0781 59.7224 13.2456L58.8167 10.8005C59.2659 10.6398 59.7474 10.4918 60.2608 10.3574C60.7741 10.2237 61.2989 10.1075 61.8352 10.0103C62.3721 9.913 62.9084 9.83735 63.4454 9.78399C63.9817 9.73063 64.5018 9.70361 65.005 9.70361C67.2251 9.70361 68.8758 10.2703 69.9559 11.4043C71.0359 12.5384 71.5762 14.2756 71.5762 16.6166V21.7884H68.5976V20.6712C68.2889 20.8522 67.9519 21.0231 67.5865 21.1845C67.221 21.3453 66.8232 21.4865 66.3943 21.6074C65.9648 21.7283 65.5041 21.8235 65.0104 21.8944C64.5173 21.9647 63.9959 21.9998 63.4461 21.9998C62.5201 21.9998 61.7068 21.8991 61.0058 21.6979C60.3047 21.4966 59.7191 21.2183 59.2496 20.8624C58.7802 20.5071 58.4263 20.089 58.1879 19.6094C57.9494 19.1299 57.8306 18.6085 57.8306 18.0445" fill="white"/>
<mask id="mask0_1_1893" style="mask-type:luminance" maskUnits="userSpaceOnUse" x="32" y="8" width="12" height="14">
<path d="M43.2582 8.97461H32.1318V21.8658H43.2582V8.97461Z" fill="white"/>
</mask>
<g mask="url(#mask0_1_1893)">
<path d="M42.5874 21.789V19.0981H39.3061V9.51373H39.2967L39.3061 9.49414C39.3021 9.50089 39.298 9.50765 39.294 9.5144L33.1368 11.3718L33.2239 14.106L36.2377 13.4211V19.0981H32.8018V21.789H42.5867H42.5874Z" fill="white"/>
</g>
<path d="M13.4032 21.7885V9.9043H10.4246V17.9041C10.2233 18.1189 9.9835 18.3168 9.70523 18.4978C9.42695 18.6788 9.12638 18.8348 8.80488 18.9658C8.4827 19.0969 8.14566 19.1989 7.79377 19.2725C7.44187 19.3468 7.09402 19.3833 6.75225 19.3833C6.02752 19.3833 5.42234 19.2941 4.93603 19.1165C4.44972 18.9388 4.06067 18.6889 3.76889 18.3667C3.4771 18.0452 3.2711 17.6575 3.1502 17.2043C3.0293 16.7518 2.96918 16.2499 2.96918 15.7001V14.4823H0V16.123C0 17.0557 0.114147 17.8858 0.342442 18.6133C0.570061 19.3414 0.931415 19.9547 1.42448 20.4545C1.91754 20.9543 2.55109 21.3346 3.32648 21.5966C4.1012 21.858 5.03194 21.9891 6.1187 21.9891C6.78265 21.9891 7.48374 21.8952 8.22199 21.7074C8.95955 21.5196 9.69442 21.2076 10.4259 20.7713V21.7878H13.4045L13.4032 21.7885Z" fill="white"/>
<path d="M0 9.9043V14.4823L2.96851 11.655V9.9043H0Z" fill="white"/>
<path d="M2.99774 0.0512695V0.918519H1.21731V1.85534H2.54993V2.6976H1.21731V4.49559H0.152832V0.0512695H2.99841H2.99774Z" fill="white"/>
<path d="M10.634 3.71006H9.0028L8.74141 4.49491H7.62695L9.20813 0.0512695H10.4408L12.0226 4.49559H10.896L10.6346 3.71074L10.634 3.71006ZM10.3597 2.87456L9.81804 1.24745L9.28243 2.87456H10.3597Z" fill="white"/>
<path d="M16.9659 1.09217C17.1529 0.748374 17.413 0.480229 17.7473 0.288408C18.0817 0.0965862 18.4606 0 18.8834 0C19.4021 0 19.8466 0.139138 20.216 0.41809C20.5855 0.696366 20.8327 1.07663 20.957 1.55754H19.7864C19.6993 1.37179 19.5757 1.23063 19.4156 1.13337C19.2556 1.03611 19.0745 0.987476 18.8712 0.987476C18.543 0.987476 18.2775 1.10365 18.0742 1.336C17.8709 1.56834 17.7689 1.87837 17.7689 2.26674C17.7689 2.65511 17.8702 2.96513 18.0742 3.19748C18.2775 3.42982 18.543 3.546 18.8712 3.546C19.0745 3.546 19.2562 3.49737 19.4156 3.40011C19.5757 3.30284 19.6986 3.16168 19.7864 2.97594H20.957C20.8327 3.45684 20.5855 3.83576 20.216 4.11201C19.8466 4.38826 19.4021 4.52672 18.8834 4.52672C18.4599 4.52672 18.081 4.43081 17.7473 4.23899C17.413 4.04717 17.1529 3.7797 16.9659 3.43793C16.7788 3.09616 16.6855 2.70577 16.6855 2.26674C16.6855 1.82771 16.7788 1.43664 16.9659 1.09217Z" fill="white"/>
<path d="M27.0137 0.0512695V2.70975C27.0137 2.97587 27.0779 3.18053 27.2069 3.32372C27.3352 3.46691 27.5243 3.53918 27.7735 3.53918C28.0228 3.53918 28.2133 3.46759 28.3463 3.32372C28.4794 3.18053 28.5456 2.9752 28.5456 2.70975V0.0512695H29.61V2.70368C29.61 3.10015 29.527 3.43584 29.3608 3.71006C29.1946 3.98429 28.9718 4.19097 28.6915 4.33078C28.4112 4.46992 28.0991 4.53949 27.7546 4.53949C27.4102 4.53949 27.1022 4.47127 26.83 4.33348C26.5578 4.19637 26.3437 3.98969 26.1856 3.71277C26.0276 3.43652 25.9492 3.09948 25.9492 2.703V0.0512695H27.0137Z" fill="white"/>
<path d="M35.7739 3.65941H37.1687V4.49491H34.7095V0.0512695H35.7739V3.65941Z" fill="white"/>
<path d="M44.8888 0.329546C45.2333 0.515289 45.5001 0.776004 45.6892 1.11169C45.8784 1.44738 45.9722 1.8344 45.9722 2.27343C45.9722 2.71246 45.8777 3.09407 45.6892 3.43179C45.5001 3.7695 45.2326 4.03089 44.8861 4.21664C44.5397 4.40238 44.1378 4.49491 43.6812 4.49491H42.0439V0.0512695H43.6812C44.1418 0.0512695 44.5444 0.143803 44.8888 0.329546ZM44.5525 3.2224C44.7767 2.99884 44.8888 2.68206 44.8888 2.27275C44.8888 1.86344 44.7767 1.54464 44.5525 1.31702C44.3282 1.0894 44.0148 0.975255 43.6123 0.975255H43.1077V3.55809H43.6123C44.0148 3.55809 44.3282 3.44665 44.5525 3.2224Z" fill="white"/>
<path d="M53.6432 3.71006H52.0121L51.7507 4.49491H50.6362L52.2174 0.0512695H53.4501L55.0319 4.49559H53.9053L53.6439 3.71074L53.6432 3.71006ZM53.369 2.87456L52.8273 1.24745L52.2917 2.87456H53.369Z" fill="white"/>
<path d="M62.717 0.329546C63.0614 0.515289 63.3282 0.776004 63.5174 1.11169C63.7065 1.44738 63.8004 1.8344 63.8004 2.27343C63.8004 2.71246 63.7058 3.09407 63.5174 3.43179C63.3282 3.7695 63.0608 4.03089 62.7143 4.21664C62.3678 4.40238 61.9659 4.49491 61.5093 4.49491H59.8721V0.0512695H61.5093C61.9699 0.0512695 62.3725 0.143803 62.717 0.329546ZM62.3806 3.2224C62.6049 2.99884 62.717 2.68206 62.717 2.27275C62.717 1.86344 62.6049 1.54464 62.3806 1.31702C62.1564 1.0894 61.843 0.975255 61.4404 0.975255H60.9359V3.55809H61.4404C61.843 3.55809 62.1564 3.44665 62.3806 3.2224Z" fill="white"/>
<path d="M69.8186 0.918519V1.81751H71.2444V2.65302H69.8186V3.62766H71.4308V4.49491H68.7534V0.0512695H71.4308V0.918519H69.8186Z" fill="white"/>
</svg>
